<svg width="64" height="94" viewBox="0 0 64 94" fill="none" xmlns="http://www.w3.org/2000/svg">
<path d="M0.699848 46.8357C1.78108 52.8536 2.77695 58.8857 3.85818 64.9036C7.35795 69.9256 10.9146 74.8907 14.4002 79.9128C19.4222 83.3983 24.3873 86.9692 29.4093 90.4547C35.4272 91.536 41.4594 92.5176 47.4773 93.6131C53.4952 92.5319 59.5273 91.536 65.5452 90.4547C70.5672 86.955 75.5323 83.3983 80.5543 79.9128C84.0399 74.8907 87.6108 69.9256 91.0963 64.9036C92.1776 58.8857 93.1592 52.8536 94.2547 46.8357C93.1734 40.8178 92.1776 34.7856 91.0963 28.7678C87.5966 23.7457 84.0399 18.7806 80.5543 13.7586C75.5323 10.273 70.5672 6.70213 65.5452 3.21659C59.5273 2.13536 53.4952 1.15371 47.4773 0.0582581C41.4594 1.13949 35.4272 2.13536 29.4093 3.21659C24.3873 6.71636 19.4222 10.273 14.4002 13.7586C10.9146 18.7806 7.34372 23.7457 3.85818 28.7678C2.77695 34.7856 1.7953 40.8178 0.699848 46.8357ZM33.4355 52.6402C33.1367 50.7053 32.8522 48.7705 32.5819 46.8214C32.8522 44.8866 33.1367 42.9375 33.4355 41.0027C34.5879 39.4236 35.7544 37.8444 36.9353 36.2794C38.5002 35.0986 40.0651 33.932 41.6585 32.7797C43.5934 32.4809 45.5282 32.1964 47.4773 31.9261C49.4121 32.1964 51.3611 32.4809 53.296 32.7797C54.8751 33.932 56.4543 35.0986 58.0192 36.2794C59.2001 37.8444 60.3667 39.4093 61.519 41.0027C61.8178 42.9375 62.1023 44.8724 62.3726 46.8214C62.1023 48.7563 61.8178 50.7053 61.519 52.6402C60.3667 54.2193 59.2001 55.7985 58.0192 57.3634C56.4543 58.5442 54.8894 59.7108 53.296 60.8632C51.3611 61.162 49.4263 61.4465 47.4773 61.7168C45.5424 61.4465 43.5934 61.162 41.6585 60.8632C40.0794 59.7108 38.5002 58.5442 36.9353 57.3634C35.7687 55.7985 34.6021 54.2193 33.4355 52.6402ZM19.0096 48.0165C18.9812 47.8173 18.9954 47.8315 19.0238 48.0734C19.0665 48.3722 19.0665 48.3437 19.0096 47.988C19.0096 48.0023 19.0096 48.0023 19.0096 48.0165ZM28.1858 67.7916C28.0294 67.6778 28.0436 67.6778 28.2428 67.8343C28.4846 68.0192 28.4562 68.005 28.1716 67.7774L28.1858 67.7916ZM48.6581 75.2891C48.4589 75.3175 48.4731 75.3033 48.715 75.2748C49.0137 75.2322 48.9853 75.2322 48.6296 75.2891C48.6438 75.2891 48.6438 75.2891 48.6581 75.2891ZM68.4332 66.1271C68.3194 66.2836 68.3194 66.2693 68.4759 66.0702C68.6608 65.8283 68.6466 65.8568 68.419 66.1413L68.4332 66.1271ZM75.9307 45.6549C75.9591 45.854 75.9591 45.8398 75.9164 45.5979C75.8738 45.2992 75.8738 45.3276 75.9307 45.6833C75.9307 45.6691 75.9307 45.6549 75.9307 45.6549ZM66.7687 25.8797C66.9252 25.9935 66.9109 25.9935 66.7118 25.837C66.4699 25.6521 66.4984 25.6663 66.7829 25.894C66.7829 25.8797 66.7687 25.8797 66.7687 25.8797ZM46.2964 18.368C46.4956 18.3396 46.4814 18.3538 46.2253 18.3823C45.9265 18.4249 45.955 18.4249 46.3107 18.368H46.2964ZM26.5213 27.5443C26.6351 27.3878 26.6351 27.402 26.4786 27.6012C26.2937 27.843 26.3079 27.8146 26.5355 27.53C26.5213 27.53 26.5213 27.5443 26.5213 27.5443ZM19.0096 45.6833C19.0523 45.3276 19.0665 45.285 19.0238 45.5979C18.9954 45.8398 18.9954 45.854 19.0096 45.6549C19.0096 45.6549 19.0096 45.6691 19.0096 45.6833ZM26.5355 66.1413C26.3079 65.8568 26.2937 65.8283 26.4786 66.0702C26.6351 66.2693 26.6351 66.2836 26.5213 66.1271C26.5213 66.1271 26.5213 66.1413 26.5355 66.1413ZM46.3249 75.2891C45.9692 75.2464 45.9265 75.2322 46.2395 75.2748C46.4814 75.3033 46.4956 75.3033 46.3107 75.2891C46.2964 75.2891 46.3107 75.2891 46.3249 75.2891ZM66.7829 67.7774C66.4984 68.005 66.4699 68.0192 66.7118 67.8343C66.9109 67.6778 66.9252 67.6778 66.7687 67.7916L66.7829 67.7774ZM75.9307 47.988C75.888 48.3437 75.8738 48.3864 75.9164 48.0734C75.9449 47.8315 75.9449 47.8173 75.9307 48.0165C75.9307 48.0023 75.9307 48.0023 75.9307 47.988ZM68.419 27.53C68.6466 27.8146 68.6608 27.843 68.4759 27.6012C68.3194 27.402 68.3194 27.3878 68.4332 27.5443L68.419 27.53ZM48.6296 18.368C48.9853 18.4107 49.028 18.4249 48.715 18.3823C48.4731 18.3538 48.4589 18.3538 48.6581 18.368C48.6438 18.368 48.6438 18.368 48.6296 18.368ZM28.1716 25.894C28.4562 25.6663 28.4846 25.6521 28.2428 25.837C28.0436 25.9935 28.0294 25.9935 28.1858 25.8797C28.1858 25.8797 28.1716 25.8797 28.1716 25.894ZM19.1519 46.8357C19.0808 47.0206 19.0381 47.2198 19.0096 47.4332C18.9669 47.6466 18.9812 47.86 19.0238 48.0734C19.0238 48.2441 19.0665 48.4006 19.1377 48.5571C19.3084 48.927 19.4222 49.2115 19.721 49.4961C20.3896 50.1505 21.2574 50.2074 22.1395 50.1363C24.3446 49.9229 26.4217 49.1262 28.4846 48.3864C28.7265 50.122 28.9825 51.8577 29.2386 53.5934C23.9321 54.4043 15.9224 55.0729 15.1542 48.5144C15.083 47.9169 15.083 47.3621 15.1542 46.8499C15.083 46.3377 15.083 45.7829 15.1542 45.1854C15.9224 38.6269 23.9321 39.2955 29.2386 40.1064C28.9683 41.8421 28.7265 43.5777 28.4846 45.3134C26.4075 44.5736 24.3446 43.7769 22.1395 43.5635C21.2574 43.4782 20.3896 43.5493 19.721 44.2037C19.4222 44.4883 19.3084 44.7728 19.1377 45.1427C19.0665 45.2992 19.0238 45.4557 19.0238 45.6264C18.9812 45.8398 18.9669 46.0532 19.0096 46.2666C19.0381 46.4515 19.0808 46.6507 19.1519 46.8357ZM27.4461 26.8045C27.2611 26.8898 27.0904 26.9894 26.9197 27.1317C26.7347 27.2455 26.5925 27.402 26.4786 27.5869C26.3648 27.715 26.2652 27.843 26.2226 27.9995C26.0945 28.3836 25.9665 28.6539 25.9665 29.0807C25.9807 30.0055 26.5498 30.6741 27.2327 31.2432C28.9399 32.6516 30.9743 33.5479 32.9518 34.5011C31.899 35.8953 30.8462 37.3038 29.8077 38.7122C25.4828 35.5397 19.3511 30.3469 23.4341 25.1542C23.804 24.6847 24.2024 24.3006 24.6149 23.9876C24.9279 23.575 25.3121 23.1767 25.7815 22.8068C30.9601 18.7095 36.1528 24.8554 39.3396 29.1803C37.9311 30.2189 36.5227 31.2574 35.1285 32.3244C34.1895 30.3327 33.2932 28.3125 31.8706 26.6053C31.3015 25.9224 30.6328 25.3533 29.7081 25.3391C29.2955 25.3391 29.011 25.4529 28.6269 25.5952C28.4704 25.6521 28.3281 25.7375 28.2143 25.8513C28.0294 25.9651 27.8871 26.1074 27.759 26.2923C27.631 26.4488 27.5314 26.6195 27.4461 26.8045ZM47.4773 18.5103C47.2923 18.4392 47.0931 18.3965 46.8797 18.368C46.6663 18.3253 46.4529 18.3396 46.2395 18.3823C46.0688 18.3823 45.9123 18.4249 45.7558 18.4961C45.3859 18.6668 45.1014 18.7806 44.8169 19.0794C44.1624 19.748 44.1055 20.6158 44.1767 21.4979C44.3901 23.703 45.1868 25.7801 45.9265 27.843C44.1909 28.0849 42.4552 28.341 40.7196 28.597C39.9087 23.2905 39.24 15.2808 45.7985 14.5126C46.396 14.4415 46.9509 14.4415 47.463 14.5126C47.9752 14.4415 48.53 14.4415 49.1276 14.5126C55.6861 15.2808 55.0174 23.2905 54.2065 28.597C52.4708 28.3267 50.7352 28.0849 48.9995 27.843C49.7393 25.7659 50.536 23.703 50.7494 21.4979C50.8348 20.6158 50.7636 19.748 50.1092 19.0794C49.8247 18.7806 49.5401 18.6668 49.1702 18.4961C49.0137 18.4249 48.8572 18.3823 48.6865 18.3823C48.4731 18.3396 48.2597 18.3253 48.0463 18.368C47.8614 18.3965 47.6622 18.4392 47.4773 18.5103ZM67.5085 26.8045C67.4231 26.6195 67.3235 26.4488 67.1812 26.2781C67.0674 26.0931 66.9109 25.9509 66.726 25.837C66.5979 25.7232 66.4699 25.6236 66.3134 25.581C65.9293 25.4529 65.659 25.3249 65.2322 25.3249C64.3075 25.3391 63.6388 25.9082 63.0697 26.5911C61.6613 28.2983 60.765 30.3327 59.8118 32.3102C58.4176 31.2574 57.0092 30.2046 55.6007 29.1661C58.7733 24.8412 63.966 18.7095 69.1588 22.7925C69.6282 23.1624 70.0124 23.5608 70.3253 23.9734C70.7379 24.2863 71.1363 24.6705 71.5062 25.1399C75.6035 30.3185 69.4575 35.5112 65.1326 38.698C64.0941 37.2895 63.0413 35.8811 61.9885 34.4869C63.9802 33.5479 66.0004 32.6516 67.7076 31.229C68.3905 30.6599 68.9596 30.0055 68.9738 29.0665C68.9738 28.6539 68.86 28.3694 68.7177 27.9853C68.6608 27.8288 68.5755 27.6865 68.4617 27.5727C68.3478 27.3878 68.1913 27.2455 68.0206 27.1175C67.8499 26.9894 67.6934 26.8898 67.5085 26.8045ZM75.8026 46.8357C75.8738 46.6507 75.9164 46.4515 75.9449 46.2381C75.9876 46.0247 75.9734 45.8113 75.9307 45.5979C75.9307 45.4272 75.888 45.2707 75.8169 45.1142C75.6461 44.7443 75.5323 44.4598 75.2336 44.1753C74.5649 43.5208 73.6971 43.4639 72.815 43.5351C70.6099 43.7485 68.5328 44.5452 66.4699 45.285C66.2281 43.5493 65.972 41.8136 65.7159 40.078C71.0225 39.2671 79.0321 38.5984 79.8003 45.1569C79.8715 45.7544 79.8715 46.3093 79.8003 46.8214C79.8715 47.3336 79.8715 47.8884 79.8003 48.486C79.0321 55.0445 71.0225 54.3758 65.7159 53.5649C65.9862 51.8292 66.2281 50.0936 66.4699 48.3579C68.547 49.0977 70.6099 49.8944 72.815 50.1078C73.6971 50.1932 74.5649 50.122 75.2336 49.4676C75.5323 49.1831 75.6461 48.8985 75.8169 48.5286C75.888 48.3722 75.9307 48.2157 75.9307 48.0449C75.9734 47.8315 75.9876 47.6181 75.9449 47.4047C75.9164 47.2198 75.8738 47.0206 75.8026 46.8357ZM67.5085 66.8669C67.6934 66.7815 67.8641 66.6819 68.0348 66.5397C68.2198 66.4258 68.3621 66.2693 68.4759 66.0844C68.5897 65.9564 68.6893 65.8283 68.732 65.6718C68.86 65.2877 68.988 65.0174 68.988 64.5906C68.9738 63.6659 68.4047 62.9972 67.7219 62.4281C66.0147 61.0197 63.9802 60.1234 62.0027 59.1702C63.0555 57.776 64.1083 56.3676 65.1468 54.9591C69.4717 58.1317 75.6035 63.3244 71.5204 68.5172C71.1505 68.9866 70.7521 69.3708 70.3396 69.6838C70.0266 70.0963 69.6425 70.4947 69.173 70.8646C63.9945 74.9619 58.8017 68.8159 55.6149 64.491C57.0234 63.4525 58.4318 62.4139 59.826 61.3469C60.765 63.3386 61.6613 65.3588 63.084 67.066C63.653 67.7489 64.3217 68.318 65.2464 68.3322C65.659 68.3322 65.9435 68.2184 66.3276 68.0761C66.4841 68.0192 66.6264 67.9339 66.7402 67.8201C66.9252 67.7062 67.0674 67.5498 67.1955 67.379C67.3093 67.2083 67.4231 67.0518 67.5085 66.8669ZM47.4773 75.161C47.6622 75.2322 47.8614 75.2748 48.0748 75.3033C48.2882 75.346 48.5016 75.3318 48.715 75.2891C48.8857 75.2891 49.0422 75.2464 49.1987 75.1753C49.5686 75.0045 49.8531 74.8907 50.1377 74.592C50.7921 73.9233 50.849 73.0555 50.7779 72.1734C50.5645 69.9683 49.7678 67.8912 49.028 65.8283C50.7636 65.5865 52.4993 65.3304 54.2349 65.0743C55.0459 70.3809 55.7145 78.3905 49.156 79.1587C48.5585 79.2299 48.0036 79.2299 47.4915 79.1587C46.9793 79.2299 46.4245 79.2299 45.827 79.1587C39.2684 78.3905 39.9371 70.3809 40.748 65.0743C42.4837 65.3446 44.2193 65.5865 45.955 65.8283C45.2152 67.9054 44.4185 69.9683 44.2051 72.1734C44.1198 73.0555 44.1909 73.9233 44.8453 74.592C45.1298 74.8907 45.4144 75.0045 45.7843 75.1753C45.9408 75.2464 46.0973 75.2891 46.268 75.2891C46.4814 75.3318 46.6948 75.346 46.9082 75.3033C47.0931 75.2748 47.2923 75.2322 47.4773 75.161ZM27.4461 66.8669C27.5314 67.0518 27.631 67.2225 27.7733 67.3933C27.8871 67.5782 28.0436 67.7205 28.2285 67.8343C28.3566 67.9481 28.4846 68.0477 28.6411 68.0904C29.0252 68.2184 29.2955 68.3465 29.7223 68.3465C30.6471 68.3322 31.3157 67.7632 31.8848 67.0803C33.2932 65.3731 34.1895 63.3386 35.1427 61.3611C36.5369 62.4139 37.9454 63.4667 39.3538 64.5052C36.1813 68.8302 30.9885 74.9619 25.7958 70.8788C25.3263 70.5089 24.9422 70.1106 24.6292 69.698C24.2166 69.385 23.8182 69.0009 23.4484 68.5314C19.3511 63.3529 25.497 58.1601 29.8219 54.9733C30.8605 56.3818 31.9132 57.7902 32.966 59.1844C30.9743 60.1234 28.9541 61.0197 27.2469 62.4424C26.564 63.0114 25.9949 63.6801 25.9807 64.6048C25.9807 65.0174 26.0945 65.3019 26.2368 65.6861C26.2937 65.8425 26.3791 65.9848 26.4929 66.0986C26.6067 66.2836 26.7632 66.4258 26.9339 66.5539C27.0904 66.6677 27.2611 66.7815 27.4461 66.8669ZM9.90453 46.8357C9.80494 47.6893 9.83339 48.614 9.98989 49.6241C11 55.7416 16.2781 57.3777 21.855 57.4488C17.9568 61.4465 15.3818 66.3263 18.9954 71.3767C19.5929 72.2019 20.2331 72.8705 20.9018 73.4111C21.4282 74.0798 22.111 74.72 22.9362 75.3175C27.9867 78.9311 32.8664 76.3561 36.8641 72.458C36.9353 78.0348 38.5713 83.3129 44.6888 84.323C45.6989 84.4938 46.6237 84.508 47.4773 84.4084C48.3309 84.508 49.2556 84.4795 50.2657 84.323C56.3832 83.3129 58.0192 78.0348 58.0904 72.458C62.0881 76.3561 66.9678 78.9311 72.0183 75.3175C72.8435 74.72 73.5121 74.0798 74.0527 73.4111C74.7214 72.8848 75.3616 72.2019 75.9591 71.3767C79.5727 66.3263 76.9977 61.4465 73.0996 57.4488C78.6764 57.3777 83.9545 55.7416 84.9646 49.6241C85.1353 48.614 85.1496 47.6893 85.05 46.8357C85.1496 45.9821 85.1211 45.0573 84.9646 44.0472C83.9545 37.9297 78.6764 36.2937 73.0996 36.2225C76.9977 32.2248 79.5727 27.3451 75.9591 22.2946C75.3616 21.4694 74.7214 20.8008 74.0527 20.2602C73.5264 19.5915 72.8435 18.9513 72.0183 18.3538C66.9678 14.7402 62.0881 17.3153 58.0904 21.2134C58.0192 15.6365 56.3832 10.3584 50.2657 9.3483C49.2556 9.17758 48.3309 9.16335 47.4773 9.26294C46.6237 9.16335 45.6989 9.1918 44.6888 9.3483C38.5713 10.3584 36.9353 15.6365 36.8641 21.2134C32.8664 17.3153 27.9867 14.7402 22.9362 18.3538C22.111 18.9513 21.4424 19.5915 20.9018 20.2602C20.2331 20.7866 19.5929 21.4694 18.9954 22.2946C15.3818 27.3451 17.9568 32.2248 21.855 36.2225C16.2781 36.2937 11 37.9297 9.98989 44.0472C9.83339 45.0573 9.80494 45.9821 9.90453 46.8357ZM7.51444 63.3813C6.5328 57.8756 5.62229 52.3414 4.64065 46.8357C5.62229 41.3157 6.5328 35.7957 7.51444 30.29C10.7154 25.6948 13.9734 21.1422 17.1744 16.547C21.7696 13.346 26.3221 10.0881 30.9174 6.88708C36.4231 5.90543 41.9573 4.99492 47.463 4.01328C52.983 4.99492 58.503 5.90543 64.0087 6.88708C68.6039 10.0881 73.1565 13.346 77.7517 16.547C80.9527 21.1422 84.2106 25.6948 87.4116 30.29C88.3933 35.7957 89.3038 41.3299 90.2854 46.8357C89.3038 52.3414 88.3933 57.8756 87.4116 63.3813C84.2106 67.9765 80.9527 72.5291 77.7517 77.1243C73.1565 80.3253 68.6039 83.5833 64.0087 86.7843C58.503 87.7659 52.9688 88.6764 47.463 89.6581C41.9431 88.6764 36.4231 87.7659 30.9174 86.7843C26.3221 83.5833 21.7696 80.3253 17.1744 77.1243C13.9876 72.5291 10.7154 67.9765 7.51444 63.3813Z" fill="white" fill-opacity="0.05"/>
</svg>
