<svg width="32" height="47" viewBox="0 0 32 47" fill="none" xmlns="http://www.w3.org/2000/svg">
<path d="M-29.8954 31.6131C-29.1891 35.5927 -28.5386 39.5817 -27.8323 43.5612C-25.5461 46.8823 -23.2228 50.1656 -20.946 53.4867C-17.6655 55.7916 -14.4221 58.153 -11.1416 60.458C-7.21055 61.173 -3.27021 61.8221 0.660835 62.5466C4.59188 61.8316 8.53222 61.173 12.4633 60.458C15.7438 58.1436 18.9871 55.7916 22.2676 53.4867C24.5445 50.1656 26.8771 46.8823 29.1539 43.5612C29.8602 39.5817 30.5015 35.5927 31.217 31.6131C30.5108 27.6335 29.8602 23.6445 29.1539 19.665C26.8678 16.3439 24.5445 13.0606 22.2676 9.73954C18.9871 7.43459 15.7438 5.07319 12.4633 2.76823C8.53222 2.05322 4.59188 1.40407 0.660835 0.679657C-3.27021 1.39466 -7.21055 2.05322 -11.1416 2.76823C-14.4221 5.08259 -17.6655 7.43459 -20.946 9.73954C-23.2228 13.0606 -25.5554 16.3439 -27.8323 19.665C-28.5386 23.6445 -29.1798 27.6335 -29.8954 31.6131ZM-8.51161 35.4516C-8.70676 34.1721 -8.89263 32.8926 -9.0692 31.6037C-8.89263 30.3242 -8.70676 29.0353 -8.51161 27.7558C-7.75885 26.7115 -6.99681 25.6673 -6.22547 24.6324C-5.20321 23.8515 -4.18095 23.0801 -3.1401 22.318C-1.87622 22.1205 -0.612339 21.9323 0.660835 21.7535C1.92472 21.9323 3.19789 22.1205 4.46177 22.318C5.49332 23.0801 6.52488 23.8515 7.54713 24.6324C8.31848 25.6673 9.08052 26.7021 9.83327 27.7558C10.0284 29.0353 10.2143 30.3148 10.3909 31.6037C10.2143 32.8832 10.0284 34.1721 9.83327 35.4516C9.08052 36.4958 8.31848 37.5401 7.54713 38.575C6.52488 39.3559 5.50262 40.1273 4.46177 40.8894C3.19789 41.0869 1.93401 41.2751 0.660835 41.4539C-0.603046 41.2751 -1.87622 41.0869 -3.1401 40.8894C-4.17166 40.1273 -5.20321 39.3559 -6.22547 38.575C-6.98751 37.5401 -7.74956 36.4958 -8.51161 35.4516ZM-17.935 32.394C-17.9535 32.2623 -17.9443 32.2717 -17.9257 32.4316C-17.8978 32.6292 -17.8978 32.6104 -17.935 32.3752C-17.935 32.3846 -17.935 32.3846 -17.935 32.394ZM-11.9408 45.4711C-12.043 45.3958 -12.0337 45.3958 -11.9036 45.4993C-11.7457 45.6216 -11.7642 45.6122 -11.9501 45.4617L-11.9408 45.4711ZM1.43217 50.4291C1.30207 50.4479 1.31136 50.4385 1.46935 50.4197C1.66451 50.3914 1.64592 50.3914 1.41359 50.4291C1.42288 50.4291 1.42288 50.4291 1.43217 50.4291ZM14.3498 44.3703C14.2755 44.4738 14.2754 44.4644 14.3777 44.3327C14.4985 44.1728 14.4892 44.1916 14.3405 44.3797L14.3498 44.3703ZM19.2473 30.8322C19.2659 30.964 19.2659 30.9545 19.238 30.7946C19.2102 30.597 19.2102 30.6159 19.2473 30.8511C19.2473 30.8417 19.2473 30.8322 19.2473 30.8322ZM13.2625 17.7551C13.3647 17.8304 13.3554 17.8304 13.2253 17.7269C13.0673 17.6046 13.0859 17.614 13.2718 17.7646C13.2718 17.7551 13.2625 17.7551 13.2625 17.7551ZM-0.110506 12.7877C0.0195999 12.7689 0.0103073 12.7783 -0.156971 12.7971C-0.352129 12.8254 -0.333546 12.8254 -0.101213 12.7877H-0.110506ZM-13.0281 18.8559C-12.9538 18.7524 -12.9538 18.7618 -13.056 18.8935C-13.1768 19.0534 -13.1675 19.0346 -13.0188 18.8465C-13.0281 18.8465 -13.0281 18.8559 -13.0281 18.8559ZM-17.935 30.8511C-17.9071 30.6159 -17.8978 30.5876 -17.9257 30.7946C-17.9443 30.9545 -17.9443 30.964 -17.935 30.8322C-17.935 30.8322 -17.935 30.8417 -17.935 30.8511ZM-13.0188 44.3797C-13.1675 44.1916 -13.1768 44.1728 -13.056 44.3327C-12.9538 44.4644 -12.9538 44.4738 -13.0281 44.3703C-13.0281 44.3703 -13.0281 44.3797 -13.0188 44.3797ZM-0.0919189 50.4291C-0.324249 50.4009 -0.352131 50.3914 -0.147678 50.4197C0.0103054 50.4385 0.019598 50.4385 -0.101213 50.4291C-0.110506 50.4291 -0.101212 50.4291 -0.0919189 50.4291ZM13.2718 45.4617C13.0859 45.6122 13.0673 45.6216 13.2253 45.4993C13.3554 45.3958 13.3647 45.3958 13.2625 45.4711L13.2718 45.4617ZM19.2473 32.3752C19.2195 32.6104 19.2102 32.6386 19.238 32.4316C19.2566 32.2717 19.2566 32.2623 19.2473 32.394C19.2473 32.3846 19.2473 32.3846 19.2473 32.3752ZM14.3405 18.8465C14.4892 19.0346 14.4985 19.0534 14.3777 18.8935C14.2754 18.7618 14.2755 18.7524 14.3498 18.8559L14.3405 18.8465ZM1.41359 12.7877C1.64592 12.816 1.6738 12.8254 1.46935 12.7971C1.31136 12.7783 1.30207 12.7783 1.43217 12.7877C1.42288 12.7877 1.42288 12.7877 1.41359 12.7877ZM-11.9501 17.7646C-11.7642 17.614 -11.7457 17.6046 -11.9036 17.7269C-12.0337 17.8304 -12.043 17.8304 -11.9408 17.7551C-11.9408 17.7551 -11.9501 17.7551 -11.9501 17.7646ZM-17.842 31.6131C-17.8885 31.7354 -17.9164 31.8671 -17.935 32.0082C-17.9628 32.1494 -17.9535 32.2905 -17.9257 32.4316C-17.9257 32.5445 -17.8978 32.648 -17.8513 32.7515C-17.7398 32.9961 -17.6655 33.1842 -17.4703 33.3724C-17.0335 33.8052 -16.4666 33.8428 -15.8904 33.7958C-14.45 33.6546 -13.0932 33.1278 -11.7457 32.6386C-11.5877 33.7863 -11.4204 34.9341 -11.2531 36.0819C-14.7195 36.6182 -19.9516 37.0603 -20.4534 32.7232C-20.4999 32.3281 -20.4999 31.9612 -20.4534 31.6225C-20.4999 31.2838 -20.4999 30.9169 -20.4534 30.5218C-19.9516 26.1847 -14.7195 26.6269 -11.2531 27.1631C-11.4297 28.3109 -11.5877 29.4587 -11.7457 30.6064C-13.1025 30.1172 -14.45 29.5904 -15.8904 29.4493C-16.4666 29.3928 -17.0335 29.4399 -17.4703 29.8726C-17.6655 30.0608 -17.7398 30.2489 -17.8513 30.4936C-17.8978 30.597 -17.9257 30.7005 -17.9257 30.8134C-17.9535 30.9545 -17.9628 31.0957 -17.935 31.2368C-17.9164 31.3591 -17.8885 31.4908 -17.842 31.6131ZM-12.4241 18.3667C-12.5449 18.4231 -12.6564 18.489 -12.7679 18.583C-12.8887 18.6583 -12.9817 18.7618 -13.056 18.8841C-13.1304 18.9688 -13.1954 19.0534 -13.2233 19.1569C-13.3069 19.411 -13.3906 19.5897 -13.3906 19.8719C-13.3813 20.4835 -13.0095 20.9256 -12.5635 21.302C-11.4483 22.2333 -10.1193 22.826 -8.82758 23.4564C-9.51528 24.3784 -10.203 25.3098 -10.8814 26.2411C-13.7065 24.1432 -17.7119 20.7093 -15.0448 17.2753C-14.8031 16.9649 -14.5429 16.7109 -14.2734 16.5039C-14.069 16.2311 -13.8181 15.9676 -13.5114 15.723C-10.1286 13.0135 -6.73659 17.0778 -4.65491 19.9378C-5.57494 20.6246 -6.49497 21.3114 -7.40571 22.017C-8.01906 20.6998 -8.60454 19.3639 -9.53386 18.235C-9.90559 17.7834 -10.3424 17.4071 -10.9464 17.3976C-11.2159 17.3976 -11.4018 17.4729 -11.6527 17.567C-11.7549 17.6046 -11.8479 17.6611 -11.9222 17.7363C-12.043 17.8116 -12.136 17.9057 -12.2196 18.028C-12.3033 18.1315 -12.3683 18.2444 -12.4241 18.3667ZM0.660835 12.8818C0.540024 12.8348 0.409916 12.8065 0.270517 12.7877C0.131119 12.7595 -0.0082798 12.7689 -0.147678 12.7971C-0.259199 12.7971 -0.361423 12.8254 -0.46365 12.8724C-0.705275 12.9853 -0.89114 13.0606 -1.07701 13.2581C-1.50449 13.7003 -1.54167 14.2742 -1.4952 14.8575C-1.3558 16.3157 -0.835377 17.6893 -0.352129 19.0534C-1.4859 19.2134 -2.61968 19.3827 -3.75346 19.5521C-4.28317 16.0429 -4.71996 10.7462 -0.435768 10.2382C-0.0454521 10.1911 0.316984 10.1911 0.651541 10.2382C0.986097 10.1911 1.34854 10.1911 1.73885 10.2382C6.02304 10.7462 5.58626 16.0429 5.05655 19.5521C3.92277 19.3733 2.78899 19.2134 1.65521 19.0534C2.13846 17.6799 2.65889 16.3157 2.79828 14.8575C2.85404 14.2742 2.80758 13.7003 2.38008 13.2581C2.19422 13.0606 2.00836 12.9853 1.76673 12.8724C1.66451 12.8254 1.56228 12.7971 1.45076 12.7971C1.31136 12.7689 1.17196 12.7595 1.03256 12.7877C0.911753 12.8065 0.781649 12.8348 0.660835 12.8818ZM13.7457 18.3667C13.69 18.2444 13.6249 18.1315 13.532 18.0186C13.4576 17.8963 13.3554 17.8022 13.2346 17.7269C13.151 17.6517 13.0673 17.5858 12.9651 17.5576C12.7142 17.4729 12.5376 17.3882 12.2588 17.3882C11.6548 17.3976 11.218 17.774 10.8462 18.2255C9.92621 19.3545 9.34073 20.6998 8.71808 22.0076C7.80735 21.3114 6.88731 20.6152 5.96728 19.9284C8.03968 17.0684 11.4317 13.0135 14.8237 15.7136C15.1304 15.9582 15.3813 16.2216 15.5858 16.4945C15.8553 16.7015 16.1155 16.9555 16.3571 17.2659C19.0336 20.6904 15.0189 24.1244 12.1938 26.2317C11.5154 25.3004 10.8277 24.369 10.1399 23.447C11.441 22.826 12.7606 22.2333 13.8758 21.2925C14.3219 20.9162 14.6936 20.4835 14.7029 19.8625C14.7029 19.5897 14.6286 19.4015 14.5357 19.1475C14.4985 19.044 14.4427 18.95 14.3684 18.8747C14.294 18.7524 14.1918 18.6583 14.0803 18.5736C13.9688 18.489 13.8665 18.4231 13.7457 18.3667ZM19.1637 31.6131C19.2102 31.4908 19.238 31.3591 19.2566 31.218C19.2845 31.0769 19.2752 30.9357 19.2473 30.7946C19.2473 30.6817 19.2195 30.5782 19.173 30.4747C19.0615 30.2301 18.9871 30.042 18.792 29.8538C18.3552 29.421 17.7883 29.3834 17.2121 29.4305C15.7717 29.5716 14.4148 30.0984 13.0673 30.5876C12.9093 29.4399 12.7421 28.2921 12.5748 27.1443C16.0412 26.6081 21.2733 26.1659 21.7751 30.503C21.8216 30.8981 21.8216 31.265 21.7751 31.6037C21.8216 31.9424 21.8216 32.3093 21.7751 32.7044C21.2733 37.0415 16.0412 36.5993 12.5748 36.0631C12.7514 34.9153 12.9093 33.7675 13.0673 32.6198C14.4241 33.109 15.7717 33.6358 17.2121 33.7769C17.7883 33.8334 18.3552 33.7864 18.792 33.3536C18.9871 33.1654 19.0615 32.9773 19.173 32.7327C19.2195 32.6292 19.2473 32.5257 19.2473 32.4128C19.2752 32.2717 19.2845 32.1305 19.2566 31.9894C19.238 31.8671 19.2102 31.7354 19.1637 31.6131ZM13.7457 44.8595C13.8665 44.8031 13.9781 44.7372 14.0896 44.6432C14.2104 44.5679 14.3033 44.4644 14.3777 44.3421C14.452 44.2574 14.5171 44.1728 14.545 44.0693C14.6286 43.8153 14.7122 43.6365 14.7122 43.3543C14.7029 42.7428 14.3312 42.3006 13.8851 41.9243C12.7699 40.9929 11.441 40.4002 10.1492 39.7698C10.8369 38.8478 11.5246 37.9165 12.2031 36.9851C15.0282 39.083 19.0336 42.517 16.3664 45.9509C16.1248 46.2613 15.8646 46.5154 15.5951 46.7223C15.3906 46.9952 15.1397 47.2586 14.833 47.5032C11.4503 50.2127 8.05826 46.1484 5.97657 43.2884C6.89661 42.6016 7.81664 41.9148 8.72738 41.2092C9.34073 42.5264 9.9262 43.8623 10.8555 44.9913C11.2273 45.4428 11.664 45.8192 12.2681 45.8286C12.5376 45.8286 12.7235 45.7533 12.9744 45.6592C13.0766 45.6216 13.1696 45.5651 13.2439 45.4899C13.3647 45.4146 13.4576 45.3111 13.5413 45.1982C13.6156 45.0853 13.69 44.9818 13.7457 44.8595ZM0.660835 50.3444C0.781649 50.3914 0.911753 50.4197 1.05115 50.4385C1.19055 50.4667 1.32995 50.4573 1.46935 50.4291C1.58087 50.4291 1.68309 50.4008 1.78532 50.3538C2.02694 50.2409 2.21281 50.1656 2.39867 49.9681C2.82616 49.5259 2.86334 48.952 2.81687 48.3687C2.67747 46.9105 2.15705 45.5369 1.6738 44.1728C2.80758 44.0128 3.94135 43.8435 5.07513 43.6741C5.60485 47.1833 6.04163 52.48 1.75744 52.988C1.36712 53.0351 1.00468 53.0351 0.670128 52.988C0.335571 53.0351 -0.0268688 53.0351 -0.417185 52.988C-4.70137 52.48 -4.26459 47.1833 -3.73487 43.6741C-2.6011 43.8529 -1.46732 44.0128 -0.333546 44.1728C-0.816793 45.5463 -1.33722 46.9105 -1.47661 48.3687C-1.53237 48.952 -1.48591 49.5259 -1.05842 49.9681C-0.872553 50.1656 -0.686687 50.2409 -0.445063 50.3538C-0.342836 50.4008 -0.240612 50.4291 -0.129093 50.4291C0.0103073 50.4573 0.149706 50.4667 0.289104 50.4385C0.409918 50.4197 0.540024 50.3914 0.660835 50.3444ZM-12.4241 44.8595C-12.3683 44.9818 -12.3033 45.0947 -12.2103 45.2076C-12.136 45.3299 -12.0337 45.424 -11.9129 45.4993C-11.8293 45.5746 -11.7457 45.6404 -11.6434 45.6686C-11.3925 45.7533 -11.2159 45.838 -10.9371 45.838C-10.3331 45.8286 -9.8963 45.4523 -9.52457 45.0007C-8.60454 43.8717 -8.01906 42.5264 -7.39642 41.2187C-6.48568 41.9148 -5.56565 42.611 -4.64561 43.2978C-6.71801 46.1578 -10.11 50.2127 -13.5021 47.5126C-13.8088 47.268 -14.0597 47.0046 -14.2641 46.7317C-14.5336 46.5248 -14.7938 46.2707 -15.0355 45.9603C-17.7119 42.5358 -13.6972 39.1019 -10.8721 36.9945C-10.1937 37.9259 -9.50598 38.8573 -8.81828 39.7792C-10.1193 40.4002 -11.439 40.9929 -12.5542 41.9337C-13.0002 42.31 -13.372 42.7522 -13.3813 43.3637C-13.3813 43.6365 -13.3069 43.8247 -13.214 44.0787C-13.1768 44.1822 -13.1211 44.2762 -13.0467 44.3515C-12.9724 44.4738 -12.8701 44.5679 -12.7586 44.6526C-12.6564 44.7278 -12.5449 44.8031 -12.4241 44.8595ZM-23.8826 31.6131C-23.9477 32.1776 -23.9291 32.7891 -23.8269 33.4571C-23.1671 37.5025 -19.7193 38.5844 -16.0763 38.6315C-18.6227 41.2751 -20.3047 44.502 -17.9443 47.8419C-17.5539 48.3875 -17.1357 48.8297 -16.699 49.1872C-16.3551 49.6294 -15.909 50.0528 -15.37 50.4479C-12.0709 52.8375 -8.88334 51.1347 -6.27193 48.5569C-6.22547 52.2448 -5.15674 55.7352 -1.16064 56.4031C-0.500824 56.516 0.103241 56.5254 0.660835 56.4596C1.21843 56.5254 1.82249 56.5066 2.48231 56.4031C6.47841 55.7352 7.54713 52.2448 7.5936 48.5569C10.205 51.1347 13.3926 52.8375 16.6917 50.4479C17.2307 50.0528 17.6675 49.6294 18.0206 49.1872C18.4574 48.8391 18.8756 48.3875 19.2659 47.8419C21.6264 44.502 19.9443 41.2751 17.398 38.6315C21.0409 38.5844 24.4887 37.5025 25.1486 33.4571C25.2601 32.7891 25.2694 32.1776 25.2043 31.6131C25.2694 31.0486 25.2508 30.4371 25.1486 29.7691C24.4887 25.7237 21.0409 24.6418 17.398 24.5947C19.9443 21.9511 21.6264 18.7242 19.2659 15.3843C18.8756 14.8387 18.4574 14.3965 18.0206 14.039C17.6768 13.5968 17.2307 13.1735 16.6917 12.7783C13.3926 10.3887 10.205 12.0915 7.5936 14.6693C7.54713 10.9814 6.47841 7.49104 2.48231 6.82307C1.82249 6.71017 1.21843 6.70077 0.660835 6.76662C0.103241 6.70077 -0.500824 6.71958 -1.16064 6.82307C-5.15674 7.49104 -6.22547 10.9814 -6.27193 14.6693C-8.88334 12.0915 -12.0709 10.3887 -15.37 12.7783C-15.909 13.1735 -16.3458 13.5968 -16.699 14.039C-17.1357 14.3871 -17.5539 14.8387 -17.9443 15.3843C-20.3047 18.7242 -18.6227 21.9511 -16.0763 24.5947C-19.7193 24.6418 -23.1671 25.7237 -23.8269 29.7691C-23.9291 30.4371 -23.9477 31.0486 -23.8826 31.6131ZM-25.4439 42.5546C-26.0851 38.9137 -26.6799 35.254 -27.3211 31.6131C-26.6799 27.9628 -26.0851 24.3125 -25.4439 20.6716C-23.3529 17.6328 -21.2248 14.6223 -19.1338 11.5835C-16.1321 9.46671 -13.1582 7.31229 -10.1565 5.19549C-6.56002 4.54634 -2.94495 3.94423 0.651541 3.29508C4.25732 3.94423 7.86311 4.54634 11.4596 5.19549C14.4613 7.31229 17.4352 9.46671 20.4369 11.5835C22.5279 14.6223 24.656 17.6328 26.747 20.6716C27.3882 24.3125 27.983 27.9722 28.6242 31.6131C27.983 35.254 27.3882 38.9137 26.747 42.5546C24.656 45.5934 22.5279 48.6039 20.4369 51.6427C17.4352 53.7595 14.4613 55.9139 11.4596 58.0307C7.86311 58.6799 4.24803 59.282 0.651541 59.9311C-2.95424 59.282 -6.56002 58.6799 -10.1565 58.0307C-13.1582 55.9139 -16.1321 53.7595 -19.1338 51.6427C-21.2155 48.6039 -23.3529 45.5934 -25.4439 42.5546Z" fill="white" fill-opacity="0.03"/>
</svg>
